<?xml version="1.0" encoding="UTF-8" standalone="no"?>
<!-- Uploaded to: SVG Repo, www.svgrepo.com, Generator: SVG Repo Mixer Tools -->

<svg
   width="800px"
   height="800px"
   viewBox="0 0 24 24"
   fill="none"
   version="1.1"
   id="svg2"
   xmlns="http://www.w3.org/2000/svg"
   xmlns:svg="http://www.w3.org/2000/svg">
  <defs
     id="defs2">
    <filter
       style="color-interpolation-filters:sRGB"
       id="filter1"
       x="-0.050876482"
       y="-0.045788646"
       width="1.101753"
       height="1.0915773">
      <feGaussianBlur
         stdDeviation="0.39249791"
         id="feGaussianBlur1" />
    </filter>
  </defs>
  <path
     id="path1"
     style="display:inline;opacity:1;fill:#2bb6f5;fill-opacity:1"
     d="m 12.427676,1.9999805 c -1.113799,0 -2.128187,0.6007005 -4.1568752,1.8021093 L 7.584668,4.2084375 c -2.028718,1.2014088 -3.0430806,1.802153 -3.6,2.791582 -0.5569295,0.989429 -0.5569336,2.1908338 -0.5569336,4.5936915 v 0.812578 c 0,2.402898 4.1e-6,3.604292 0.5569336,4.593691 0.5569194,0.989399 1.571282,1.590125 3.6,2.791524 l 0.6861328,0.406406 c 2.0286882,1.201399 3.0430762,1.80211 4.1568752,1.80211 1.113899,0 2.128253,-0.600711 4.157051,-1.80211 l 0.686074,-0.406406 c 2.028698,-1.201399 3.0431,-1.802125 3.6,-2.791524 0.556899,-0.989399 0.556875,-2.190793 0.556875,-4.593691 v -0.812578 c 0,-2.4028577 2.4e-5,-3.6042625 -0.556875,-4.5936915 -0.5569,-0.989429 -1.571302,-1.5901732 -3.6,-2.791582 L 16.584727,3.8020898 C 14.555929,2.600681 13.541575,1.9999805 12.427676,1.9999805 Z m 0,6.2500195 c 2.071098,0 3.75,1.6789321 3.75,3.75 0,2.071098 -1.678902,3.75 -3.75,3.75 -2.070998,0 -3.7499416,-1.678902 -3.7499416,-3.75 0,-2.0710679 1.6789436,-3.75 3.7499416,-3.75 z" />
</svg>
