<?xml version="1.0" encoding="UTF-8" standalone="no"?>
<svg
   version="1.1"
   width="550"
   height="120"
   viewBox="0 0 550 120"
   id="svg7"
   xmlns="http://www.w3.org/2000/svg"
   xmlns:svg="http://www.w3.org/2000/svg">
  <defs
     id="defs7" />
  <g
     id="g7">
    <path
       fill="#68b6ff"
       d="m 21.9,46.8375 q 0,-8.67 4.94,-15.05 4.94,-6.39 13.45,-10.72 8.51,-4.33 19.31,-6.46 10.79,-2.13 22.49,-2.13 14.44,0 26.83,2.59 12.39,2.58 22.42,6.84 v 35.26 q -4.26,-3.19 -11.17,-5.47 -6.92,-2.28 -14.59,-3.5 -7.68,-1.21 -14.52,-1.21 -4.56,0 -8.28,0.53 -3.73,0.53 -5.93,1.6 -2.21,1.06 -2.21,2.73 0,0.91 0.69,1.37 0.68,0.46 2.05,0.61 1.37,0.15 3.5,0.15 h 12.31 q 7.6,0 15.27,0.99 7.68,0.99 13.99,3.87 6.31,2.89 10.11,8.29 3.8,5.39 3.8,14.21 0,9.27 -5.1,15.73 -5.09,6.46 -13.83,10.49 -8.74,4.03 -19.61,5.85 -10.86,1.83 -22.57,1.83 -13.83,0 -27.28,-2.59 -13.45,-2.58 -23.03,-7.6 v -37.09 q 3.8,4.11 10.87,6.77 7.07,2.66 15.35,3.95 8.28,1.29 15.58,1.29 4.71,0 8.51,-0.53 3.8,-0.53 6.01,-1.67 2.2,-1.14 2.2,-2.97 0,-0.76 -0.46,-1.06 -0.45,-0.3 -1.44,-0.46 -0.99,-0.15 -2.66,-0.15 h -9.12 q -5.32,0 -11.78,-0.38 -6.46,-0.38 -12.84,-1.67 -6.39,-1.29 -11.63,-4.1 -5.25,-2.82 -8.44,-7.76 -3.19,-4.94 -3.19,-12.38"
       id="path1"
       style="fill:#ffffff;fill-opacity:1" />
    <rect
       width="114.46"
       height="102.76"
       x="22.400024"
       y="12.972499"
       fill="none"
       rx="0"
       ry="0"
       id="rect2" />
    <path
       fill="#68b6ff"
       d="m 208.1,76.6275 q 8.06,0 12.46,-2.89 4.41,-2.89 4.56,-7.9 l 46.97,15.35 q -2.73,9.57 -11.63,17.4 -8.89,7.83 -22.42,12.39 -13.52,4.56 -30.24,4.56 -14.29,0 -26.68,-3.19 -12.39,-3.19 -21.74,-9.65 -9.34,-6.46 -14.66,-16.19 -5.32,-9.73 -5.32,-22.65 0,-12.92 5.32,-22.65 5.32,-9.73 14.66,-16.19 9.35,-6.46 21.82,-9.65 12.46,-3.19 26.6,-3.19 14.44,0 26.52,3.19 12.08,3.19 20.82,9.81 8.74,6.61 13.53,16.72 4.79,10.1 4.79,23.94 h -82.99 v 0.15 q 0,2.28 1.21,4.25 1.22,1.98 3.42,3.42 2.21,1.45 5.48,2.21 3.26,0.76 7.52,0.76 m -0.3,-25.99 q -7.45,0 -12.32,2.66 -4.86,2.66 -4.86,7.52 v 0.3 h 34.05 q 0.15,0 0.15,-0.07 v -0.23 q 0,-2.43 -1.29,-4.33 -1.29,-1.9 -3.57,-3.19 -2.28,-1.3 -5.4,-1.98 -3.12,-0.68 -6.76,-0.68"
       id="path2"
       style="fill:#ffffff;fill-opacity:1" />
    <rect
       width="134.06"
       height="103.36"
       x="139.90002"
       y="12.6725"
       fill="none"
       rx="0"
       ry="0"
       id="rect3" />
    <path
       fill="#68b6ff"
       d="m 370.28,58.0775 h -40.12 q 1.82,-6.99 3.57,-13.83 1.75,-6.84 3.49,-13.75 1.75,-6.92 3.42,-13.76 h 29.64 z m -92.26,13.23 v -54.87 L 330,3.9674997 V 57.3175 q 0,2.89 1.3,5.02 1.29,2.13 3.64,3.57 2.36,1.45 5.55,2.21 3.19,0.76 7.15,0.76 4.4,0 8.96,-1.37 4.56,-1.37 8.29,-3.8 3.72,-2.43 5.39,-5.63 v 46.21 q -6.53,5.17 -16.87,7.68 -10.33,2.51 -20.67,2.51 -15.66,0 -28.04,-5.1 -12.39,-5.09 -19.54,-14.74 -7.14,-9.65 -7.14,-23.33"
       id="path3"
       style="fill:#ffffff;fill-opacity:1" />
    <rect
       width="92.260002"
       height="110.51"
       x="278.52002"
       y="4.4625015"
       fill="none"
       rx="0"
       ry="0"
       id="rect4" />
    <path
       fill="#68b6ff"
       d="M 468.93,58.0775 H 428.8 q 1.83,-6.99 3.58,-13.83 1.74,-6.84 3.49,-13.75 1.75,-6.92 3.42,-13.76 h 29.64 z m -92.26,13.23 v -54.87 L 428.65,3.9674997 V 57.3175 q 0,2.89 1.29,5.02 1.3,2.13 3.65,3.57 2.36,1.45 5.55,2.21 3.19,0.76 7.14,0.76 4.41,0 8.97,-1.37 4.56,-1.37 8.29,-3.8 3.72,-2.43 5.39,-5.63 v 46.21 q -6.53,5.17 -16.87,7.68 -10.34,2.51 -20.67,2.51 -15.66,0 -28.05,-5.1 -12.38,-5.09 -19.53,-14.74 -7.14,-9.65 -7.14,-23.33"
       id="path4"
       style="fill:#ffffff;fill-opacity:1" />
    <rect
       width="92.260002"
       height="110.51"
       x="377.17004"
       y="4.4625015"
       fill="none"
       rx="0"
       ry="0"
       id="rect5" />
    <path
       fill="#68b6ff"
       d="m 527.6,110.9775 h -52.59 v -53.05 h 52.59 z m -52.59,-53.05 v -41.19 h 52.59 v 30.1 l -0.07,0.07 -0.08,0.08 q -13.07,2.73 -26.22,5.47 -13.15,2.74 -26.22,5.47"
       id="path5"
       style="fill:#ffffff;fill-opacity:1" />
    <rect
       width="52.59"
       height="94.239998"
       x="475.51001"
       y="17.232502"
       fill="none"
       rx="0"
       ry="0"
       id="rect6" />
  </g>
</svg>
